<?xml version="1.0" encoding="UTF-8" standalone="no"?>
<!DOCTYPE svg PUBLIC "-//W3C//DTD SVG 1.1//EN" "http://www.w3.org/Graphics/SVG/1.1/DTD/svg11.dtd">
<svg xmlns="http://www.w3.org/2000/svg" version="1.1" viewBox="0.00 0.00 95.00 45.00">
<path fill="#000000" d="
  M 94.01 35.97
  A 1.03 1.03 0.0 0 1 92.98 37.00
  L 3.06 37.00
  A 1.03 1.03 0.0 0 1 2.03 35.97
  L 2.03 9.03
  A 1.03 1.03 0.0 0 1 3.06 8.00
  L 92.98 8.00
  A 1.03 1.03 0.0 0 1 94.01 9.03
  L 94.01 35.97
  Z
  M 44.34 16.65
  L 43.03 13.58
  Q 42.35 11.98 40.61 11.92
  L 38.43 11.83
  Q 36.85 11.77 37.57 13.18
  C 38.74 15.45 43.15 20.73 41.44 24.14
  Q 39.49 28.02 37.48 31.98
  Q 36.83 33.27 38.27 33.20
  L 40.52 33.11
  A 2.45 2.45 0.0 0 0 42.60 31.77
  L 44.52 27.98
  A 0.42 0.41 45.4 0 1 45.26 27.99
  L 47.10 31.71
  A 2.45 2.45 0.0 0 0 49.27 33.09
  L 51.72 33.13
  Q 53.25 33.16 52.48 31.84
  L 47.48 23.20
  A 1.14 1.13 43.7 0 1 47.45 22.13
  L 51.85 13.26
  Q 52.53 11.88 50.99 11.93
  L 48.78 12.01
  A 2.24 2.22 -77.3 0 0 46.86 13.24
  L 45.15 16.67
  Q 44.72 17.53 44.34 16.65
  Z
  M 62.70 27.73
  A 0.31 0.31 0.0 0 1 63.25 27.72
  L 65.91 32.78
  A 0.31 0.31 0.0 0 0 66.16 32.95
  L 70.71 33.37
  A 0.31 0.31 0.0 0 0 71.01 32.91
  L 65.46 22.33
  A 0.31 0.31 0.0 0 1 65.46 22.05
  L 70.52 12.36
  A 0.31 0.31 0.0 0 0 70.24 11.91
  L 65.70 12.05
  A 0.31 0.31 0.0 0 0 65.44 12.22
  L 63.33 16.37
  A 0.31 0.31 0.0 0 1 62.78 16.38
  L 60.43 12.02
  A 0.31 0.31 0.0 0 0 60.16 11.86
  L 55.77 11.84
  A 0.31 0.31 0.0 0 0 55.50 12.30
  L 60.58 22.07
  A 0.31 0.31 0.0 0 1 60.58 22.35
  L 54.97 32.89
  A 0.31 0.31 0.0 0 0 55.27 33.35
  L 59.83 32.93
  A 0.31 0.31 0.0 0 0 60.08 32.76
  L 62.70 27.73
  Z
  M 80.82 27.09
  Q 82.53 26.40 84.24 27.11
  A 1.10 1.10 0.0 0 1 84.85 27.79
  L 86.14 32.07
  Q 86.41 32.96 87.34 33.02
  L 90.74 33.22
  Q 91.82 33.28 91.52 32.24
  L 85.92 12.87
  Q 85.80 12.47 85.41 12.32
  C 84.34 11.90 81.03 11.49 79.67 12.17
  A 1.24 1.22 -5.5 0 0 79.05 12.91
  L 73.46 32.43
  Q 73.28 33.05 73.93 33.06
  L 77.98 33.07
  A 0.79 0.78 8.5 0 0 78.73 32.52
  L 80.18 27.79
  Q 80.33 27.28 80.82 27.09
  Z
  M 10.74 17.13
  A 0.50 0.49 19.4 0 1 11.12 17.91
  C 8.16 22.08 3.57 27.04 4.65 32.50
  Q 4.75 33.03 5.29 33.03
  L 16.91 33.02
  Q 18.09 33.02 18.04 31.84
  L 17.94 29.26
  A 1.22 1.21 0.0 0 0 16.76 28.09
  L 11.52 27.91
  A 0.71 0.71 0.0 0 1 10.97 26.79
  C 13.33 23.53 18.73 16.82 17.99 12.76
  A 0.93 0.92 84.8 0 0 17.08 12.00
  L 5.42 12.04
  Q 4.49 12.04 4.50 12.98
  L 4.51 15.81
  Q 4.52 16.85 5.56 16.90
  L 10.74 17.13
  Z
  M 25.98 17.75
  A 0.63 0.63 0.0 0 1 26.60 17.07
  L 33.53 16.95
  A 0.63 0.63 0.0 0 0 34.14 16.29
  L 33.93 12.54
  A 0.63 0.63 0.0 0 0 33.30 11.95
  L 22.14 12.07
  A 0.63 0.63 0.0 0 0 21.51 12.71
  L 21.63 32.35
  A 0.63 0.63 0.0 0 0 22.25 32.97
  L 33.36 33.05
  A 0.63 0.63 0.0 0 0 33.99 32.42
  L 34.02 28.63
  A 0.63 0.63 0.0 0 0 33.39 28.00
  L 26.62 28.01
  A 0.63 0.63 0.0 0 1 25.99 27.37
  L 26.01 25.77
  A 0.63 0.63 0.0 0 1 26.61 25.15
  L 31.52 24.87
  A 0.63 0.63 0.0 0 0 32.12 24.25
  L 32.17 20.78
  A 0.63 0.63 0.0 0 0 31.57 20.14
  L 26.70 19.90
  A 0.63 0.63 0.0 0 1 26.11 19.32
  L 25.98 17.75
  Z"
/>
</svg>
